<svg xmlns="http://www.w3.org/2000/svg" viewBox="0 0 325.43 85.59"><defs><style>.cls-1{fill:#fff;}.cls-2{fill:#e94e1b;}.cls-3{fill:#0086cd;}</style></defs><g id="Warstwa_2" data-name="Warstwa 2"><g id="Warstwa_1-2" data-name="Warstwa 1"><path class="cls-1" d="M116.34,15.72H112.6c-8.63,0-13,4-13,11.88v6.48c0,4.41,1.42,7.54,4.23,9.27a10,10,0,0,0,3.05,1.08c.64.15,2,.41,4.27.8,4.51.76,7,1.22,7.56,1.35,1.78.48,2.91,1.18,3.35,2.07a10.66,10.66,0,0,1,.73,4.55v4.46c0,2.47-.42,4.17-1.24,5.06S119.12,64,116.77,64h-5.1c-2.49,0-4.21-.52-5.12-1.56s-1.39-3-1.39-5.89v-5H98.58v3.25c0,5.7.87,9.55,2.65,11.76,1.93,2.41,5.49,3.62,10.59,3.62h4.66c8.64,0,13-4,13-11.86V50.92c0-3.86-1.12-6.68-3.32-8.37-1.92-1.46-5.41-2.58-10.68-3.42a72.31,72.31,0,0,1-7.19-1.32c-1.4-.58-2.08-1.83-2.08-3.83v-5.6c0-2.42.42-4.1,1.25-5s2.41-1.32,4.77-1.32h4.23c2.49,0,4.2.51,5.08,1.52s1.36,3,1.36,5.85v2.32h6.58v-2.1c0-4.92-1-8.51-3-10.67S121,15.72,116.34,15.72Z"/><path class="cls-1" d="M145.77,62l-7.43-30h-6.11l9.64,37.59h1.64L143,71.74c-.94,3.76-2.79,5.58-5.67,5.58a13.28,13.28,0,0,1-1.65-.14L135,77.1v5.53l.46.1a15.47,15.47,0,0,0,3.29.38,8.06,8.06,0,0,0,7-3.72c1.29-2,2.54-5.33,3.81-10.23L159,32h-5.82Z"/><path class="cls-1" d="M193.14,31.37A9.59,9.59,0,0,0,184.47,36c-1.43-3-4.24-4.59-8.35-4.59a9.59,9.59,0,0,0-7.88,3.51V32h-5.49V69.61h5.85V48.67c0-4.23.46-7.28,1.38-9s2.58-2.76,5-2.76c1.88,0,3.12.63,3.78,1.93s1.09,3.82,1.09,7.15V69.61h5.85V48.67c0-4.24.44-7.28,1.3-9s2.59-2.76,5-2.76c1.89,0,3.15.64,3.86,1.94S197,42.62,197,46V69.61h5.85v-25c0-4.62-.72-7.89-2.19-10S196.63,31.37,193.14,31.37Z"/><path class="cls-1" d="M232.82,52.31V46.47c0-5.55-.9-9.36-2.76-11.65s-5.14-3.45-9.75-3.45-8,1.15-9.86,3.41-2.8,6.08-2.8,11.69v8.62c0,5.55.91,9.37,2.79,11.68s5.17,3.48,9.79,3.48c4.3,0,7.48-.88,9.48-2.62s3-4.68,3-8.67V57.15h-5.57v1.74c0,2.19-.48,3.66-1.41,4.38s-2.86,1.13-5.57,1.13c-3,0-4.93-.83-5.68-2.47-.33-.66-.73-2.37-.73-6.77V52.31Zm-19-7.42c0-3.1.46-5.25,1.37-6.38s2.62-1.64,5.18-1.64,4.36.54,5.22,1.61,1.33,3.26,1.33,6.41v1.7h-13.1Z"/><path class="cls-1" d="M251.29,31.37A10.21,10.21,0,0,0,243,34.92V32h-5.49V69.61h5.85V48.67c0-4.22.51-7.26,1.51-9s2.82-2.78,5.44-2.78c2,0,3.39.67,4.15,2.07s1.14,3.64,1.14,7V69.61h5.86v-25c0-4.56-.78-7.92-2.31-10S254.92,31.37,251.29,31.37Z"/><path class="cls-1" d="M281.86,59.82a6.94,6.94,0,0,1-.82,3.89,3.28,3.28,0,0,1-2.82,1.05c-1.69,0-2.73-.48-3.2-1.44-.27-.6-.59-2.06-.59-5.63V37.51h11.85V32H274.43V23.19h-5.85V32h-3.81v5.49h3.81V59.18c0,4,.57,6.72,1.76,8.32,1.36,1.83,3.82,2.75,7.3,2.75s5.92-.91,7.42-2.72,2.22-4.64,2.22-8.5V55.86h-5.42Z"/><rect class="cls-1" x="291.13" y="32.02" width="5.86" height="37.59"/><rect class="cls-1" x="291.13" y="16.37" width="5.86" height="7.29"/><path class="cls-1" d="M323.66,50.67c-1.17-1.3-3.1-2.16-5.72-2.56-6.1-.94-7.76-1.25-8.06-1.34a2.33,2.33,0,0,1-1.82-2.45V40.8a4,4,0,0,1,.94-3.07,5.7,5.7,0,0,1,3.63-.86H315a4.67,4.67,0,0,1,3.28.87,4.64,4.64,0,0,1,.87,3.27v1.6H325v-2.1c0-3.4-.68-5.72-2.09-7.1s-3.83-2-7.43-2h-3.25c-6.79,0-10.24,3-10.24,8.93v4.88c0,2.64.82,4.5,2.42,5.52,1.08.72,3.48,1.39,7.33,2,4.61.8,5.79,1.16,6.09,1.31,1,.47,1.46,1.54,1.46,3.27v3.45a4.11,4.11,0,0,1-1,3.11c-.64.59-1.85.89-3.6.89h-3.21c-1.79,0-2.95-.35-3.45-1.05-.3-.42-.67-1.47-.67-4.1V56.79h-5.85v4.33c0,3.4.68,5.72,2.08,7.1s3.84,2,7.44,2h4.11c6.8,0,10.24-3,10.24-8.92V56.45A8.38,8.38,0,0,0,323.66,50.67Z"/><path class="cls-2" d="M83.16,50.62A42,42,0,0,0,19.53,6.54a2.66,2.66,0,1,0,1.22,1.84A39.81,39.81,0,0,1,81,50.12a2.64,2.64,0,1,0,2.14.5Z"/><path class="cls-2" d="M78.89,60a2.64,2.64,0,0,0-3.52,3.75,39.7,39.7,0,0,1-22.3,16.52,2.62,2.62,0,1,0,.57,2.12,42,42,0,0,0,16.72-9.36,41.49,41.49,0,0,0,6.87-8.11A2.65,2.65,0,0,0,78.89,60Z"/><path class="cls-3" d="M41.23,80.29a2.64,2.64,0,0,0-2.39,1.43,39.81,39.81,0,0,1-28.4-63.93A2.61,2.61,0,0,0,13.09,17a2.64,2.64,0,1,0-4.37-.56,42,42,0,0,0,2.28,54A41.57,41.57,0,0,0,38.71,83.91a2.65,2.65,0,1,0,2.52-3.62Z"/><path class="cls-3" d="M69.74,22A2.67,2.67,0,1,0,68,23.36,32,32,0,0,1,20.72,65.87L20,65.2a2.61,2.61,0,0,0-.51-2.71,2.64,2.64,0,1,0-1.05,4.27c.27.25.53.51.81.75A34.17,34.17,0,0,0,69.74,22Z"/><path class="cls-2" d="M61.74,12.23a2.64,2.64,0,0,0-3,0A34.17,34.17,0,0,0,10.16,54.39a2.65,2.65,0,1,0,2-.86,32,32,0,0,1,45.47-39.4,2.64,2.64,0,1,0,4.08-1.9Z"/><path class="cls-3" d="M67.93,46.71A26.33,26.33,0,0,0,18.59,30a2.64,2.64,0,1,0,2.46,3.62A2.62,2.62,0,0,0,20.59,31,24.12,24.12,0,0,1,65.78,46.23a2.64,2.64,0,1,0,2.15.48Z"/><path class="cls-2" d="M63.56,55.46a2.64,2.64,0,0,0-4,3.17A24.25,24.25,0,0,1,41,66.13a2.62,2.62,0,0,0-2.11-1.74,2.65,2.65,0,1,0,1.93,3.93c.41,0,.81,0,1.22,0a26.46,26.46,0,0,0,19.18-8.28,2.61,2.61,0,0,0,2.82-.9A2.65,2.65,0,0,0,63.56,55.46Z"/><path class="cls-2" d="M30.48,61.45a2.63,2.63,0,0,0-2.73,0A24.26,24.26,0,0,1,18,44.37,2.63,2.63,0,0,0,19.44,42a2.65,2.65,0,1,0-3.62,2.46,26.47,26.47,0,0,0,10.7,18.8,2.64,2.64,0,1,0,4-1.85Z"/><path class="cls-2" d="M52.16,45.29A10.65,10.65,0,1,0,38.92,52.2,2.65,2.65,0,1,0,39.33,50,8.45,8.45,0,1,1,49.57,38.23a8.39,8.39,0,0,1,.57,6.15,2.61,2.61,0,0,0-2.22,1.26,2.64,2.64,0,1,0,4.24-.35Z"/><path class="cls-3" d="M59.45,35.82A18.57,18.57,0,0,0,43.32,23.59a2.64,2.64,0,1,0-2.24,3.71,2.6,2.6,0,0,0,2.21-1.51,16.29,16.29,0,1,1-12.7,4.64,2.64,2.64,0,0,0,3.23-4,2.64,2.64,0,0,0-4.67,2.3,18.49,18.49,0,1,0,30.3,7.06Z"/></g></g></svg>